<?xml version="1.0" encoding="UTF-8" standalone="no"?>
<!-- Created with Inkscape (http://www.inkscape.org/) -->

<svg
   xmlns:dc="http://purl.org/dc/elements/1.1/"
   xmlns:cc="http://creativecommons.org/ns#"
   xmlns:rdf="http://www.w3.org/1999/02/22-rdf-syntax-ns#"
   xmlns:svg="http://www.w3.org/2000/svg"
   xmlns="http://www.w3.org/2000/svg"
   xmlns:sodipodi="http://sodipodi.sourceforge.net/DTD/sodipodi-0.dtd"
   xmlns:inkscape="http://www.inkscape.org/namespaces/inkscape"
   id="svg2"
   version="1.1"
   inkscape:version="0.48.4 r9939"
   width="658.75"
   height="557.5"
   xml:space="preserve"
   sodipodi:docname="rayleighCDF.pdf"><metadata
     id="metadata8"><rdf:RDF><cc:Work
         rdf:about=""><dc:format>image/svg+xml</dc:format><dc:type
           rdf:resource="http://purl.org/dc/dcmitype/StillImage" /><dc:title></dc:title></cc:Work></rdf:RDF></metadata><defs
     id="defs6"><clipPath
       clipPathUnits="userSpaceOnUse"
       id="clipPath18"><path
         d="m 45,356.918 458,0 L 503,50 45,50 45,356.918 z"
         id="path20" /></clipPath><clipPath
       clipPathUnits="userSpaceOnUse"
       id="clipPath24"><path
         d="m 45.5,356.9675 457.6,0 0,-306.62346 -457.6,0 0,306.62346 z"
         id="path26" /></clipPath><clipPath
       clipPathUnits="userSpaceOnUse"
       id="clipPath30"><path
         d="m 45,50 458,0 0,306.918 -458,0 L 45,50 z"
         id="path32" /></clipPath><clipPath
       clipPathUnits="userSpaceOnUse"
       id="clipPath40"><path
         d="m 45,356.918 458,0 L 503,50 45,50 45,356.918 z"
         id="path42" /></clipPath><clipPath
       clipPathUnits="userSpaceOnUse"
       id="clipPath46"><path
         d="m 45,50 458,0 0,306.918 -458,0 L 45,50 z"
         id="path48" /></clipPath><clipPath
       clipPathUnits="userSpaceOnUse"
       id="clipPath58"><path
         d="m 45,356.918 458,0 L 503,50 45,50 45,356.918 z"
         id="path60" /></clipPath><clipPath
       clipPathUnits="userSpaceOnUse"
       id="clipPath64"><path
         d="m 49,56.80664 447.167,0 0,290.6918 -447.167,0 0,-290.6918 z"
         id="path66" /></clipPath><clipPath
       clipPathUnits="userSpaceOnUse"
       id="clipPath106"><path
         d="m 9.134766,436.5781 82.000004,0 0,-37 -82.000004,0 0,37 z"
         id="path108" /></clipPath><clipPath
       clipPathUnits="userSpaceOnUse"
       id="clipPath112"><path
         d="m 9.996,401 80,0 0,35 -80,0 0,-35 z"
         id="path114" /></clipPath><clipPath
       clipPathUnits="userSpaceOnUse"
       id="clipPath142"><path
         d="m 33.67188,358 9,0 0,-16 -9,0 0,16 z"
         id="path144" /></clipPath><clipPath
       clipPathUnits="userSpaceOnUse"
       id="clipPath148"><path
         d="m 34.996,343 7,0 0,14 -7,0 0,-14 z"
         id="path150" /></clipPath><clipPath
       clipPathUnits="userSpaceOnUse"
       id="clipPath162"><path
         d="m 34.5,75.3584 11,0 0,-16 -11,0 0,16 z"
         id="path164" /></clipPath><clipPath
       clipPathUnits="userSpaceOnUse"
       id="clipPath168"><path
         d="m 34.996,60 9,0 0,14 -9,0 0,-14 z"
         id="path170" /></clipPath><clipPath
       clipPathUnits="userSpaceOnUse"
       id="clipPath200"><path
         d="m 211.0078,321 11,0 0,-14 -11,0 0,14 z"
         id="path202" /></clipPath><clipPath
       clipPathUnits="userSpaceOnUse"
       id="clipPath206"><path
         d="m 211,307 11,0 0,14 -11,0 0,-14 z"
         id="path208" /></clipPath><clipPath
       clipPathUnits="userSpaceOnUse"
       id="clipPath220"><path
         d="m 109.3848,41.29102 71,0 0,-14 -71,0 0,14 z"
         id="path222" /></clipPath><clipPath
       clipPathUnits="userSpaceOnUse"
       id="clipPath226"><path
         d="m 109.996,28 69,0 0,12 -69,0 0,-12 z"
         id="path228" /></clipPath><clipPath
       clipPathUnits="userSpaceOnUse"
       id="clipPath240"><path
         d="m 346.8594,41.29102 56,0 0,-14 -56,0 0,14 z"
         id="path242" /></clipPath><clipPath
       clipPathUnits="userSpaceOnUse"
       id="clipPath246"><path
         d="m 347.996,28 54,0 0,12 -54,0 0,-12 z"
         id="path248" /></clipPath><clipPath
       clipPathUnits="userSpaceOnUse"
       id="clipPath300"><path
         d="m 226.5078,27.05469 21,0 0,-18.000002 -21,0 0,18.000002 z"
         id="path302" /></clipPath><clipPath
       clipPathUnits="userSpaceOnUse"
       id="clipPath306"><path
         d="m 227,9 21,0 0,18 -21,0 0,-18 z"
         id="path308" /></clipPath><clipPath
       clipPathUnits="userSpaceOnUse"
       id="clipPath330"><path
         d="m 177.0078,86.70898 28,0 0,-18 -28,0 0,18 z"
         id="path332" /></clipPath><clipPath
       clipPathUnits="userSpaceOnUse"
       id="clipPath336"><path
         d="m 177.0078,68.70898 28,0 0,18 -28,0 0,-18 z"
         id="path338" /></clipPath><clipPath
       clipPathUnits="userSpaceOnUse"
       id="clipPath356"><path
         d="m 484.5,76.70898 11,0 0,-10 -11,0 0,10 z"
         id="path358" /></clipPath><clipPath
       clipPathUnits="userSpaceOnUse"
       id="clipPath362"><path
         d="m 484,67 11,0 0,10 -11,0 0,-10 z"
         id="path364" /></clipPath></defs><sodipodi:namedview
     pagecolor="#ffffff"
     bordercolor="#666666"
     borderopacity="1"
     objecttolerance="10"
     gridtolerance="10"
     guidetolerance="10"
     inkscape:pageopacity="0"
     inkscape:pageshadow="2"
     inkscape:window-width="1440"
     inkscape:window-height="848"
     id="namedview4"
     showgrid="false"
     inkscape:zoom="1.1039267"
     inkscape:cx="296.20635"
     inkscape:cy="237.20139"
     inkscape:window-x="-8"
     inkscape:window-y="-8"
     inkscape:window-maximized="1"
     inkscape:current-layer="g10" /><g
     id="g10"
     inkscape:groupmode="layer"
     inkscape:label="rayleighCDF"
     transform="matrix(1.25,0,0,-1.25,0,557.5)"><g
       id="g12" /><g
       id="g14"
       transform="translate(117.16535,-47.244094)"><g
         id="g16"
         clip-path="url(#clipPath18)"><g
           id="g22"
           clip-path="url(#clipPath24)"><g
             id="g28"
             clip-path="url(#clipPath30)"><path
               d="m -25,18.4419 577,0 0,356.6271 -577,0 0,-356.6271 z"
               style="fill:#ffffff;fill-opacity:1;fill-rule:nonzero;stroke:none"
               id="path34"
               inkscape:connector-curvature="0" /></g></g></g></g><g
       id="g36"><g
         id="g38"
         clip-path="url(#clipPath40)"><g
           id="g44"
           clip-path="url(#clipPath46)"><g
             id="g50"
             transform="matrix(1,0,0,0.8250483,45,50)" /><g
             id="g52"
             transform="matrix(1,0,0,0.8250483,45,50)" /></g></g></g><g
       id="g54"><g
         id="g56"
         clip-path="url(#clipPath58)"><g
           id="g62"
           clip-path="url(#clipPath64)"><g
             id="g68"
             transform="matrix(1,0,0,0.8250483,45,50)"><path
               d="m 4,8.416997 0.583,0 L 10,8.916998 15.333,10.25 l 5.417,2.167 5.417,3 5.416,3.75 5.417,4.5 5.333,5.25 5.417,6 5.41701,6.58299 5.416,7.25001 5.41699,7.74999 5.417,8.333 5.333,8.66701 5.41701,9.16701 5.416,9.5 L 91,102 l 5.41701,10 10.74999,20.5 16.25,31.25 5.333,10.333 5.417,10.167 5.416,10 5.417,9.833 5.417,9.667 5.416,9.333 5.334,9 5.416,8.75 5.417,8.417 5.417,8.083 5.416,7.75 5.334,7.334 5.416,7 5.417,6.583 5.417,6.25 5.416,5.833 5.334,5.5 5.416,5.084 5.417,4.833 5.417,4.417 5.416,4.083 5.417,3.833 5.333,3.5 5.417,3.25 5.417,2.917 5.416,2.667 5.417,2.5 5.333,2.166 5.417,2.084 5.417,1.75 5.416,1.666 5.417,1.5 5.333,1.334 5.417,1.166 5.417,1 5.416,0.917 5.417,0.833 5.417,0.75 5.333,0.667 5.417,0.583 5.416,0.5 5.417,0.417 5.417,0.333 5.333,0.334 5.417,0.333 5.416,0.25 10.834,0.333 5.333,0.167 5.417,0.167 10.833,0.166 5.417,0.084 5.416,0.083 5.334,0.083 5.416,0.084 10.834,0 5.416,0.083 9.084,0"
               style="fill:none;stroke:#000000;stroke-opacity:1;stroke-width:2;stroke-linecap:butt;stroke-linejoin:round;stroke-miterlimit:10;stroke-dasharray:none"
               id="path70" /></g></g></g></g><g
       id="g72"
       style="fill:#000000;fill-opacity:1"><g
         id="g74"
         transform="matrix(1,0,0,-1,0.5,446.5)"
         style="fill:#000000;fill-opacity:1"><path
           d="m 43,391 445.1,0"
           style="fill:#000000;stroke:#000000;stroke-opacity:1;stroke-width:2;stroke-linecap:round;stroke-linejoin:round;stroke-miterlimit:10;stroke-dasharray:none;fill-opacity:1"
           id="path76" /></g><path
         d="m 498.2,55.5 -9.6,3.60001 0,-7.20002 9.6,3.60001 z"
         style="fill:#000000;fill-opacity:1;fill-rule:nonzero;stroke:none"
         id="path78" /><g
         id="g80"
         transform="matrix(1,0,0,-1,0.5,446.5)"
         style="fill:#000000;fill-opacity:1"><path
           d="m 497.7,391 -9.6,-3.6 0,7.2 9.6,-3.6 z"
           style="fill:#000000;stroke:#000000;stroke-opacity:1;stroke-width:2;stroke-linecap:butt;stroke-linejoin:miter;stroke-miterlimit:10;stroke-dasharray:none;fill-opacity:1"
           id="path82" /></g><g
         id="g84"
         transform="matrix(1,0,0,-1,0.5,446.5)"
         style="fill:#000000;fill-opacity:1"><path
           d="M 49,398 49,59.58359"
           style="fill:#000000;stroke:#000000;stroke-opacity:1;stroke-width:2;stroke-linecap:round;stroke-linejoin:round;stroke-miterlimit:10;stroke-dasharray:none;fill-opacity:1"
           id="path86" /></g><path
         d="m 49.5,396.5164 -3.6,-9.6 7.2,0 -3.6,9.6 z"
         style="fill:#000000;fill-opacity:1;fill-rule:nonzero;stroke:none"
         id="path88" /><g
         id="g90"
         transform="matrix(1,0,0,-1,0.5,446.5)"
         style="fill:#000000;fill-opacity:1"><path
           d="m 49,49.98358 -3.6,9.60001 7.2,0 -3.6,-9.60001 z"
           style="fill:#000000;stroke:#000000;stroke-opacity:1;stroke-width:2;stroke-linecap:butt;stroke-linejoin:miter;stroke-miterlimit:10;stroke-dasharray:none;fill-opacity:1"
           id="path92" /></g><g
         id="g94"
         transform="matrix(1,0,0,-1,0.5,446.5)"
         style="fill:#000000;fill-opacity:1"><path
           d="m 236.5078,395.4805 0,-7.4805"
           style="fill:#000000;stroke:#000000;stroke-opacity:1;stroke-width:3;stroke-linecap:round;stroke-linejoin:round;stroke-miterlimit:10;stroke-dasharray:none;fill-opacity:1"
           id="path96" /></g><g
         id="g98"
         transform="matrix(1,0,0,-1,0.5,446.5)"
         style="fill:#000000;fill-opacity:1"><path
           d="m 237.3789,412.0352 0,-244.0352"
           style="fill:#000000;stroke:#000000;stroke-opacity:1;stroke-width:1;stroke-linecap:round;stroke-linejoin:round;stroke-miterlimit:10;stroke-dasharray:4, 4;stroke-dashoffset:0;fill-opacity:1"
           id="path100" /></g></g><g
       id="g102"><g
         id="g104"
         clip-path="url(#clipPath106)"><flowRoot
           xml:space="preserve"
           id="flowRoot4125"
           style="font-size:20px;font-style:normal;font-weight:normal;line-height:125%;letter-spacing:0px;word-spacing:0px;fill:#000000;fill-opacity:1;stroke:none;font-family:Sans"
           transform="matrix(0.8,0,0,-0.8,24.566929,427.73228)"><flowRegion
             id="flowRegion4127"><rect
               id="rect4129"
               width="113.38583"
               height="47.244095"
               x="8.661417"
               y="9.468504" /></flowRegion><flowPara
             id="flowPara4131">CDF</flowPara></flowRoot></g></g><g
       id="g128"><g
         id="g130"
         transform="matrix(1,0,0,-1,0.5,446.5)"><path
           d="m 48.76172,167 188.61718,0"
           style="fill:none;stroke:#000000;stroke-opacity:1;stroke-width:1;stroke-linecap:round;stroke-linejoin:round;stroke-miterlimit:10;stroke-dasharray:4,4;stroke-dashoffset:0"
           id="path132" /></g><g
         id="g134"
         transform="matrix(1,0,0,-1,0.5,446.5)"><path
           d="M 47.75391,98 494,99"
           style="fill:none;stroke:#000000;stroke-opacity:1;stroke-width:1;stroke-linecap:round;stroke-linejoin:round;stroke-miterlimit:10;stroke-dasharray:4,4;stroke-dashoffset:0"
           id="path136" /></g></g><g
       id="g138"><g
         id="g140"
         clip-path="url(#clipPath142)"><g
           id="g146"
           clip-path="url(#clipPath148)"><g
             id="g152"
             transform="matrix(2,0,0,2,-264.06,-970.9961)"><text
               transform="matrix(1,0,0,-1,148.712,657.235)"
               id="text154"><tspan
                 style="fill:#000000;fill-opacity:1;fill-rule:nonzero;stroke:none;font-family:CMR10;font-variant:normal;font-weight:normal;font-size:9.9626;writing-mode:lr;-inkscape-font-specification:CMR10"
                 x="0"
                 y="0"
                 id="tspan156">1</tspan></text>
</g></g></g></g><g
       id="g178"><g
         id="g180"
         transform="matrix(1,0,0,-1,0.5,446.5)"><path
           d="m 236.3789,107.9 0,48.2"
           style="fill:none;stroke:#000000;stroke-opacity:1;stroke-width:1;stroke-linecap:round;stroke-linejoin:round;stroke-miterlimit:10;stroke-dasharray:none"
           id="path182" /></g><path
         d="m 236.8789,282.4 3,8 -6,0 3,-8 z"
         style="fill:#000000;fill-opacity:1;fill-rule:nonzero;stroke:none"
         id="path184" /><g
         id="g186"
         transform="matrix(1,0,0,-1,0.5,446.5)"><path
           d="m 236.3789,164.1 3,-8 -6,0 3,8 z"
           style="fill:none;stroke:#000000;stroke-opacity:1;stroke-width:1;stroke-linecap:butt;stroke-linejoin:miter;stroke-miterlimit:10;stroke-dasharray:none"
           id="path188" /></g><path
         d="m 236.8789,346.6 -3,-8 6,0 -3,8 z"
         style="fill:#000000;fill-opacity:1;fill-rule:nonzero;stroke:none"
         id="path190" /><g
         id="g192"
         transform="matrix(1,0,0,-1,0.5,446.5)"><path
           d="m 236.3789,99.89999 -3,8.00001 6,0 -3,-8.00001 z"
           style="fill:none;stroke:#000000;stroke-opacity:1;stroke-width:1;stroke-linecap:butt;stroke-linejoin:miter;stroke-miterlimit:10;stroke-dasharray:none"
           id="path194" /></g></g><g
       id="g216"><g
         id="g218"
         clip-path="url(#clipPath220)"><g
           id="g224"
           clip-path="url(#clipPath226)"
           transform="translate(-170.70866,86.929134)"><g
             id="g230"
             transform="matrix(1.6,0,0,1.6,-344.8584,-1023.197)"><text
               transform="matrix(1,0,0,-1,284.024,657.235)"
               id="text232"><tspan
                 style="font-size:9.96259975px;font-variant:normal;font-weight:normal;writing-mode:lr-tb;fill:#000000;fill-opacity:1;fill-rule:nonzero;stroke:none;font-family:CMR10;-inkscape-font-specification:CMR10"
                 x="0"
                 sodipodi:role="line"
                 id="tspan234"
                 y="0">OK</tspan></text>
</g></g></g></g><g
       id="g256"><g
         id="g258"
         transform="matrix(1,0,0,-1,0.5,446.5)"><path
           d="m 226.4789,400.8545 -167.57891,0"
           style="fill:none;stroke:#000000;stroke-opacity:1;stroke-width:1;stroke-linecap:round;stroke-linejoin:round;stroke-miterlimit:10;stroke-dasharray:none"
           id="path260" /></g><path
         d="m 51.4,45.64551 8,-3 0,6 -8,-3 z"
         style="fill:#000000;fill-opacity:1;fill-rule:nonzero;stroke:none"
         id="path262" /><g
         id="g264"
         transform="matrix(1,0,0,-1,0.5,446.5)"><path
           d="m 50.9,400.8545 8,3 0,-6 -8,3 z"
           style="fill:none;stroke:#000000;stroke-opacity:1;stroke-width:1;stroke-linecap:butt;stroke-linejoin:miter;stroke-miterlimit:10;stroke-dasharray:none"
           id="path266" /></g><path
         d="m 234.9789,45.64551 -8,3 0,-6 8,3 z"
         style="fill:#000000;fill-opacity:1;fill-rule:nonzero;stroke:none"
         id="path268" /><g
         id="g270"
         transform="matrix(1,0,0,-1,0.5,446.5)"><path
           d="m 234.4789,400.8545 -8,-3 0,6 8,-3 z"
           style="fill:none;stroke:#000000;stroke-opacity:1;stroke-width:1;stroke-linecap:butt;stroke-linejoin:miter;stroke-miterlimit:10;stroke-dasharray:none"
           id="path272" /></g><g
         id="g274"
         transform="matrix(1,0,0,-1,0.5,446.5)"><path
           d="m 247.1656,400.8545 246.8344,0"
           style="fill:none;stroke:#000000;stroke-opacity:1;stroke-width:1;stroke-linecap:round;stroke-linejoin:round;stroke-miterlimit:10;stroke-dasharray:none"
           id="path276" /></g><path
         d="m 239.6656,45.64551 8,-3 0,6 -8,-3 z"
         style="fill:#000000;fill-opacity:1;fill-rule:nonzero;stroke:none"
         id="path278" /><g
         id="g280"
         transform="matrix(1,0,0,-1,0.5,446.5)"><path
           d="m 239.1656,400.8545 8,3 0,-6 -8,3 z"
           style="fill:none;stroke:#000000;stroke-opacity:1;stroke-width:1;stroke-linecap:butt;stroke-linejoin:miter;stroke-miterlimit:10;stroke-dasharray:none"
           id="path282" /></g><g
         id="g284"
         transform="matrix(1,0,0,-1,0.5,446.5)"><path
           d="m 190.5078,394.4805 0,-7.4805"
           style="fill:none;stroke:#000000;stroke-opacity:1;stroke-width:3;stroke-linecap:round;stroke-linejoin:round;stroke-miterlimit:10;stroke-dasharray:none"
           id="path286" /></g><g
         id="g288"
         transform="matrix(1,0,0,-1,0.5,446.5)"><path
           d="m 49.76172,226.0654 137.85548,0"
           style="fill:none;stroke:#000000;stroke-opacity:1;stroke-width:1;stroke-linecap:round;stroke-linejoin:round;stroke-miterlimit:10;stroke-dasharray:4,4;stroke-dashoffset:0"
           id="path290" /></g><g
         id="g292"
         transform="matrix(1,0,0,-1,0.5,446.5)"><path
           d="m 190.9688,391 0,-163.9346"
           style="fill:none;stroke:#000000;stroke-opacity:1;stroke-width:1;stroke-linecap:round;stroke-linejoin:round;stroke-miterlimit:10;stroke-dasharray:4,4;stroke-dashoffset:0"
           id="path294" /></g></g><g
       id="g296"><g
         id="g298"
         clip-path="url(#clipPath300)"><g
           id="g304"
           clip-path="url(#clipPath306)"><g
             id="g310"
             transform="matrix(2,0,0,2,-71.056,-1301.996)"><text
               transform="matrix(1,0,0,-1,148.712,657.235)"
               id="text312"><tspan
                 style="fill:#000000;fill-opacity:1;fill-rule:nonzero;stroke:none;font-family:CMMI10;font-variant:normal;font-weight:normal;font-size:9.9626;writing-mode:lr;-inkscape-font-specification:CMMI10"
                 x="0"
                 y="0"
                 id="tspan314">E</tspan></text>
</g><g
             id="g316"
             transform="matrix(2,0,0,2,-71.056,-1301.996)"><text
               transform="matrix(1,0,0,-1,156.067,655.741)"
               id="text318"><tspan
                 style="fill:#000000;fill-opacity:1;fill-rule:nonzero;stroke:none;font-family:CMMI7;font-variant:normal;font-weight:normal;font-size:6.9738;writing-mode:lr;-inkscape-font-specification:CMMI7"
                 x="0"
                 y="0"
                 id="tspan320">s</tspan></text>
</g></g></g></g><g
       id="g322"><path
         d="m 177.0078,86.70898 28,0 0,-18 -28,0 0,18 z"
         style="fill:#ffffff;fill-opacity:1;fill-rule:nonzero;stroke:none"
         id="path324" /></g><g
       id="g326"><g
         id="g328"
         clip-path="url(#clipPath330)"><g
           id="g334"
           clip-path="url(#clipPath336)"><g
             id="g340"
             transform="matrix(2,0,0,2,-121.0482,-1242.287)"><text
               transform="matrix(1,0,0,-1,148.712,657.235)"
               id="text342"><tspan
                 style="fill:#000000;fill-opacity:1;fill-rule:nonzero;stroke:none;font-family:CMMI10;font-variant:normal;font-weight:normal;font-size:9.9626;writing-mode:lr;-inkscape-font-specification:CMMI10"
                 x="0"
                 y="0"
                 id="tspan344">E</tspan></text>
</g><g
             id="g346"
             transform="matrix(2,0,0,2,-121.0482,-1242.287)"><text
               transform="matrix(1,0,0,-1,156.067,655.741)"
               id="text348"><tspan
                 style="fill:#000000;fill-opacity:1;fill-rule:nonzero;stroke:none;font-family:CMMI7;font-variant:normal;font-weight:normal;font-size:6.9738;writing-mode:lr;-inkscape-font-specification:CMMI7"
                 x="0"
                 y="0"
                 id="tspan350">m</tspan></text>
</g></g></g></g><g
       id="g352"><g
         id="g354"
         clip-path="url(#clipPath356)"><g
           id="g360"
           clip-path="url(#clipPath362)"><g
             id="g366"
             transform="matrix(2,0,0,2,-122.054,-1202.996)"><text
               transform="matrix(1,0,0,-1,302.777,635.3181)"
               id="text368"><tspan
                 style="fill:#000000;fill-opacity:1;fill-rule:nonzero;stroke:none;font-family:CMMI10;font-variant:normal;font-weight:normal;font-size:9.9626;writing-mode:lr;-inkscape-font-specification:CMMI10"
                 x="0"
                 y="0"
                 id="tspan370">x</tspan></text>
</g></g></g></g><text
       xml:space="preserve"
       style="font-size:16px;font-style:normal;font-weight:normal;line-height:125%;letter-spacing:0px;word-spacing:0px;fill:#009400;fill-opacity:1;stroke:none;font-family:Sans"
       x="86.29921"
       y="-28.346468"
       id="text3347"
       sodipodi:linespacing="125%"
       transform="scale(1,-1)"><tspan
         sodipodi:role="line"
         id="tspan3349"
         x="86.29921"
         y="-28.346468">Pas de défauts</tspan></text>
<text
       xml:space="preserve"
       style="font-size:16px;font-style:normal;font-weight:normal;line-height:125%;letter-spacing:0px;word-spacing:0px;fill:#ff0000;fill-opacity:1;stroke:none;font-family:Sans"
       x="335.1181"
       y="-28.976368"
       id="text3351"
       sodipodi:linespacing="125%"
       transform="scale(1,-1)"><tspan
         sodipodi:role="line"
         id="tspan3353"
         x="335.1181"
         y="-28.976368">Défauts</tspan></text>
<text
       xml:space="preserve"
       style="font-size:16px;font-style:normal;font-weight:normal;line-height:125%;letter-spacing:0px;word-spacing:0px;fill:#000000;fill-opacity:1;stroke:none;font-family:Sans"
       x="222.99213"
       y="-310.55118"
       id="text4133"
       sodipodi:linespacing="125%"
       transform="scale(1,-1)"><tspan
         sodipodi:role="line"
         id="tspan4135"
         x="222.99213"
         y="-310.55118"
         style="font-style:oblique;-inkscape-font-specification:Sans Oblique">p</tspan></text>
<path
       sodipodi:type="arc"
       style="opacity:0.78318582999999986;fill:#ff0000;fill-opacity:1;stroke:none;stroke-width:0.10000000000000001;stroke-miterlimit:4;stroke-dasharray:none"
       id="path4137"
       sodipodi:cx="343.3071"
       sodipodi:cy="182.30315"
       sodipodi:rx="3.1496062"
       sodipodi:ry="3.5433071"
       d="m 346.4567,182.30315 a 3.1496062,3.5433071 0 1 1 -6.29921,0 3.1496062,3.5433071 0 1 1 6.29921,0 z"
       transform="matrix(0.8,0,0,-0.8,-20.787254,202.12276)" /><path
       sodipodi:type="arc"
       style="opacity:0.78318582999999986;fill:#009100;fill-opacity:1;stroke:none"
       id="path4137-1"
       sodipodi:cx="343.3071"
       sodipodi:cy="182.30315"
       sodipodi:rx="3.1496062"
       sodipodi:ry="3.5433071"
       d="m 346.4567,182.30315 a 3.1496062,3.5433071 0 1 1 -6.29921,0 3.1496062,3.5433071 0 1 1 6.29921,0 z"
       transform="matrix(0.8,0,0,-0.8,-90.078602,202.12276)" /><path
       sodipodi:type="arc"
       style="opacity:0.78318582999999986;fill:#009100;fill-opacity:1;stroke:none"
       id="path4137-1-9"
       sodipodi:cx="343.3071"
       sodipodi:cy="182.30315"
       sodipodi:rx="3.1496062"
       sodipodi:ry="3.5433071"
       d="m 346.4567,182.30315 a 3.1496062,3.5433071 0 1 1 -6.29921,0 3.1496062,3.5433071 0 1 1 6.29921,0 z"
       transform="matrix(0.8,0,0,-0.8,-97.00772,202.12276)"
       inkscape:transform-center-x="-8.6614173"
       inkscape:transform-center-y="3.5433071" /><path
       sodipodi:type="arc"
       style="opacity:0.78318582999999986;fill:#009100;fill-opacity:1;stroke:none"
       id="path4137-1-9-8"
       sodipodi:cx="343.3071"
       sodipodi:cy="182.30315"
       sodipodi:rx="3.1496062"
       sodipodi:ry="3.5433071"
       d="m 346.4567,182.30315 a 3.1496062,3.5433071 0 1 1 -6.29921,0 3.1496062,3.5433071 0 1 1 6.29921,0 z"
       transform="matrix(0.8,0,0,-0.8,-74.960491,202.12276)"
       inkscape:transform-center-x="-6.9291363"
       inkscape:transform-center-y="-2.8346432" /><path
       sodipodi:type="arc"
       style="opacity:0.78318582999999986;fill:#009100;fill-opacity:1;stroke:none"
       id="path4137-1-9-8-9"
       sodipodi:cx="343.3071"
       sodipodi:cy="182.30315"
       sodipodi:rx="3.1496062"
       sodipodi:ry="3.5433071"
       d="m 346.4567,182.30315 a 3.1496062,3.5433071 0 1 1 -6.29921,0 3.1496062,3.5433071 0 1 1 6.29921,0 z"
       transform="matrix(0.8,0,0,-0.8,-183.93684,202.12276)"
       inkscape:transform-center-x="-5.5433115"
       inkscape:transform-center-y="2.2677171" /><path
       sodipodi:type="arc"
       style="opacity:0.78318582999999986;fill:#ff0000;fill-opacity:1;stroke:none;stroke-width:0.10000000000000001;stroke-miterlimit:4;stroke-dasharray:none"
       id="path4137-1-9-8-9-0"
       sodipodi:cx="343.3071"
       sodipodi:cy="182.30315"
       sodipodi:rx="3.1496062"
       sodipodi:ry="3.5433071"
       d="m 346.4567,182.30315 a 3.1496062,3.5433071 0 1 1 -6.29921,0 3.1496062,3.5433071 0 1 1 6.29921,0 z"
       transform="matrix(0.8,0,0,-0.8,8.8190426,202.12276)"
       inkscape:transform-center-x="-4.4346517"
       inkscape:transform-center-y="-1.8141712" /><path
       sodipodi:type="arc"
       style="opacity:0.78318582999999986;fill:#ff0000;fill-opacity:1;stroke:none;stroke-width:0.10000000000000001;stroke-miterlimit:4;stroke-dasharray:none"
       id="path4137-1-9-8-9-3"
       sodipodi:cx="343.3071"
       sodipodi:cy="182.30315"
       sodipodi:rx="3.1496062"
       sodipodi:ry="3.5433071"
       d="m 346.4567,182.30315 a 3.1496062,3.5433071 0 1 1 -6.29921,0 3.1496062,3.5433071 0 1 1 6.29921,0 z"
       transform="matrix(0.8,0,0,-0.8,60.472583,202.12276)"
       inkscape:transform-center-x="-4.4346517"
       inkscape:transform-center-y="-1.8141712" /><path
       sodipodi:type="arc"
       style="opacity:0.78318582999999986;fill:#ff0000;fill-opacity:1;stroke:none;stroke-width:0.10000000000000001;stroke-miterlimit:4;stroke-dasharray:none"
       id="path4137-1-9-8-9-8"
       sodipodi:cx="343.3071"
       sodipodi:cy="182.30315"
       sodipodi:rx="3.1496062"
       sodipodi:ry="3.5433071"
       d="m 346.4567,182.30315 a 3.1496062,3.5433071 0 1 1 -6.29921,0 3.1496062,3.5433071 0 1 1 6.29921,0 z"
       transform="matrix(0.8,0,0,-0.8,40.945024,202.12276)"
       inkscape:transform-center-x="-4.4346517"
       inkscape:transform-center-y="-1.8141712" /><path
       sodipodi:type="arc"
       style="opacity:0.78318582999999986;fill:#009100;fill-opacity:1;stroke:none"
       id="path4137-1-9-8-9-6"
       sodipodi:cx="343.3071"
       sodipodi:cy="182.30315"
       sodipodi:rx="3.1496062"
       sodipodi:ry="3.5433071"
       d="m 346.4567,182.30315 a 3.1496062,3.5433071 0 1 1 -6.29921,0 3.1496062,3.5433071 0 1 1 6.29921,0 z"
       transform="matrix(0.8,0,0,-0.8,-146.14156,202.12276)"
       inkscape:transform-center-x="-4.4346517"
       inkscape:transform-center-y="-1.8141712" /><path
       sodipodi:type="arc"
       style="opacity:0.78318582999999986;fill:#009100;fill-opacity:1;stroke:none"
       id="path4137-1-9-8-9-37"
       sodipodi:cx="343.3071"
       sodipodi:cy="182.30315"
       sodipodi:rx="3.1496062"
       sodipodi:ry="3.5433071"
       d="m 346.4567,182.30315 a 3.1496062,3.5433071 0 1 1 -6.29921,0 3.1496062,3.5433071 0 1 1 6.29921,0 z"
       transform="matrix(0.8,0,0,-0.8,-107.71637,202.12276)"
       inkscape:transform-center-x="-4.4346517"
       inkscape:transform-center-y="-1.8141712" /><path
       sodipodi:type="arc"
       style="opacity:0.78318582999999986;fill:#009100;fill-opacity:1;stroke:none"
       id="path4137-1-9-8-9-2"
       sodipodi:cx="343.3071"
       sodipodi:cy="182.30315"
       sodipodi:rx="3.1496062"
       sodipodi:ry="3.5433071"
       d="m 346.4567,182.30315 a 3.1496062,3.5433071 0 1 1 -6.29921,0 3.1496062,3.5433071 0 1 1 6.29921,0 z"
       transform="matrix(0.8,0,0,-0.8,-159.36991,202.12276)"
       inkscape:transform-center-x="-4.4346517"
       inkscape:transform-center-y="-1.8141712" /><path
       sodipodi:type="arc"
       style="opacity:0.78318582999999986;fill:#009100;fill-opacity:1;stroke:none"
       id="path4137-1-9-8-9-82"
       sodipodi:cx="343.3071"
       sodipodi:cy="182.30315"
       sodipodi:rx="3.1496062"
       sodipodi:ry="3.5433071"
       d="m 346.4567,182.30315 a 3.1496062,3.5433071 0 1 1 -6.29921,0 3.1496062,3.5433071 0 1 1 6.29921,0 z"
       transform="matrix(0.8,0,0,-0.8,-117.16519,202.12276)"
       inkscape:transform-center-x="-4.4346517"
       inkscape:transform-center-y="-1.8141712" /><path
       sodipodi:type="arc"
       style="opacity:0.78318582999999986;fill:#ff0000;fill-opacity:1;stroke:none;stroke-width:0.10000000000000001;stroke-miterlimit:4;stroke-dasharray:none"
       id="path4137-1-9-8-9-4"
       sodipodi:cx="343.3071"
       sodipodi:cy="182.30315"
       sodipodi:rx="3.1496062"
       sodipodi:ry="3.5433071"
       d="m 346.4567,182.30315 a 3.1496062,3.5433071 0 1 1 -6.29921,0 3.1496062,3.5433071 0 1 1 6.29921,0 z"
       transform="matrix(0.8,0,0,-0.8,17.008016,202.12276)"
       inkscape:transform-center-x="-4.4346517"
       inkscape:transform-center-y="-1.8141712" /><path
       sodipodi:type="arc"
       style="opacity:0.78318582999999986;fill:#ff0000;fill-opacity:1;stroke:none;stroke-width:0.10000000000000001;stroke-miterlimit:4;stroke-dasharray:none"
       id="path4137-1-9-8-9-9"
       sodipodi:cx="343.3071"
       sodipodi:cy="182.30315"
       sodipodi:rx="3.1496062"
       sodipodi:ry="3.5433071"
       d="m 346.4567,182.30315 a 3.1496062,3.5433071 0 1 1 -6.29921,0 3.1496062,3.5433071 0 1 1 6.29921,0 z"
       transform="matrix(0.8,0,0,-0.8,-10.078605,202.12276)"
       inkscape:transform-center-x="-4.4346517"
       inkscape:transform-center-y="-1.8141712" /><path
       sodipodi:type="arc"
       style="opacity:0.78318582999999986;fill:#009100;fill-opacity:1;stroke:none"
       id="path4137-1-9-8-9-09"
       sodipodi:cx="343.3071"
       sodipodi:cy="182.30315"
       sodipodi:rx="3.1496062"
       sodipodi:ry="3.5433071"
       d="m 346.4567,182.30315 a 3.1496062,3.5433071 0 1 1 -6.29921,0 3.1496062,3.5433071 0 1 1 6.29921,0 z"
       transform="matrix(0.8,0,0,-0.8,-171.96833,202.12276)"
       inkscape:transform-center-x="-4.4346517"
       inkscape:transform-center-y="-1.8141712" /><path
       sodipodi:type="arc"
       style="opacity:0.78318582999999986;fill:#009100;fill-opacity:1;stroke:none"
       id="path4137-1-9-8-9-68"
       sodipodi:cx="343.3071"
       sodipodi:cy="182.30315"
       sodipodi:rx="3.1496062"
       sodipodi:ry="3.5433071"
       d="m 346.4567,182.30315 a 3.1496062,3.5433071 0 1 1 -6.29921,0 3.1496062,3.5433071 0 1 1 6.29921,0 z"
       transform="matrix(0.8,0,0,-0.8,-133.54313,202.12276)"
       inkscape:transform-center-x="-4.4346517"
       inkscape:transform-center-y="-1.8141712" /><path
       sodipodi:type="arc"
       style="opacity:0.78318582999999986;fill:#009100;fill-opacity:1;stroke:none"
       id="path4137-1-9-8-9-7"
       sodipodi:cx="343.3071"
       sodipodi:cy="182.30315"
       sodipodi:rx="3.1496062"
       sodipodi:ry="3.5433071"
       d="m 346.4567,182.30315 a 3.1496062,3.5433071 0 1 1 -6.29921,0 3.1496062,3.5433071 0 1 1 6.29921,0 z"
       transform="matrix(0.8,0,0,-0.8,-59.84238,202.12276)"
       inkscape:transform-center-x="-4.4346517"
       inkscape:transform-center-y="-1.8141712" /><path
       sodipodi:type="arc"
       style="opacity:0.78318582999999986;fill:#009100;fill-opacity:1;stroke:none"
       id="path4137-1-9-8-9-37-7"
       sodipodi:cx="343.3071"
       sodipodi:cy="182.30315"
       sodipodi:rx="3.1496062"
       sodipodi:ry="3.5433071"
       d="m 346.4567,182.30315 a 3.1496062,3.5433071 0 1 1 -6.29921,0 3.1496062,3.5433071 0 1 1 6.29921,0 z"
       transform="matrix(0.8,0,0,-0.8,-124.09431,202.12276)"
       inkscape:transform-center-x="-3.5477239"
       inkscape:transform-center-y="1.4513395" /><path
       sodipodi:type="arc"
       style="opacity:0.78318582999999986;fill:#009100;fill-opacity:1;stroke:none"
       id="path4137-1-9-8-9-37-1"
       sodipodi:cx="343.3071"
       sodipodi:cy="182.30315"
       sodipodi:rx="3.1496062"
       sodipodi:ry="3.5433071"
       d="m 346.4567,182.30315 a 3.1496062,3.5433071 0 1 1 -6.29921,0 3.1496062,3.5433071 0 1 1 6.29921,0 z"
       transform="matrix(0.8,0,0,-0.8,-48.503801,202.12276)"
       inkscape:transform-center-x="-3.5477239"
       inkscape:transform-center-y="1.4513395" /><path
       sodipodi:type="arc"
       style="opacity:0.78318582999999986;fill:#009100;fill-opacity:1;stroke:none"
       id="path4137-1-9-8-9-37-4"
       sodipodi:cx="343.3071"
       sodipodi:cy="182.30315"
       sodipodi:rx="3.1496062"
       sodipodi:ry="3.5433071"
       d="m 346.4567,182.30315 a 3.1496062,3.5433071 0 1 1 -6.29921,0 3.1496062,3.5433071 0 1 1 6.29921,0 z"
       transform="matrix(0.8,0,0,-0.8,-197.16519,202.12276)"
       inkscape:transform-center-x="-3.5477239"
       inkscape:transform-center-y="1.4513395" /><path
       sodipodi:type="arc"
       style="opacity:0.78318582999999986;fill:#009100;fill-opacity:1;stroke:none"
       id="path4137-1-9-8-9-37-0"
       sodipodi:cx="343.3071"
       sodipodi:cy="182.30315"
       sodipodi:rx="3.1496062"
       sodipodi:ry="3.5433071"
       d="m 346.4567,182.30315 a 3.1496062,3.5433071 0 1 1 -6.29921,0 3.1496062,3.5433071 0 1 1 6.29921,0 z"
       transform="matrix(0.8,0,0,-0.8,-189.60613,202.12276)"
       inkscape:transform-center-x="-3.5477239"
       inkscape:transform-center-y="1.4513395" /><path
       sodipodi:type="arc"
       style="opacity:0.78318582999999986;fill:#009100;fill-opacity:1;stroke:none"
       id="path4137-1-9-8-9-37-8"
       sodipodi:cx="343.3071"
       sodipodi:cy="182.30315"
       sodipodi:rx="3.1496062"
       sodipodi:ry="3.5433071"
       d="m 346.4567,182.30315 a 3.1496062,3.5433071 0 1 1 -6.29921,0 3.1496062,3.5433071 0 1 1 6.29921,0 z"
       transform="matrix(0.8,0,0,-0.8,-177.63763,202.12276)"
       inkscape:transform-center-x="-3.5477239"
       inkscape:transform-center-y="1.4513395" /><path
       sodipodi:type="arc"
       style="opacity:0.78318582999999986;fill:#009100;fill-opacity:1;stroke:none"
       id="path4137-1-9-8-9-37-05"
       sodipodi:cx="343.3071"
       sodipodi:cy="182.30315"
       sodipodi:rx="3.1496062"
       sodipodi:ry="3.5433071"
       d="m 346.4567,182.30315 a 3.1496062,3.5433071 0 1 1 -6.29921,0 3.1496062,3.5433071 0 1 1 6.29921,0 z"
       transform="matrix(0.8,0,0,-0.8,-65.511673,202.12276)"
       inkscape:transform-center-x="-3.5477239"
       inkscape:transform-center-y="1.4513395" /><path
       sodipodi:type="arc"
       style="opacity:0.78318582999999986;fill:#009100;fill-opacity:1;stroke:none"
       id="path4137-1-9-8-9-37-2"
       sodipodi:cx="343.3071"
       sodipodi:cy="182.30315"
       sodipodi:rx="3.1496062"
       sodipodi:ry="3.5433071"
       d="m 346.4567,182.30315 a 3.1496062,3.5433071 0 1 1 -6.29921,0 3.1496062,3.5433071 0 1 1 6.29921,0 z"
       transform="matrix(0.8,0,0,-0.8,-79.999864,202.12276)"
       inkscape:transform-center-x="-3.5477239"
       inkscape:transform-center-y="1.4513395" /><path
       sodipodi:type="arc"
       style="opacity:0.78318582999999986;fill:#009100;fill-opacity:1;stroke:none"
       id="path4137-1-9-8-9-37-9"
       sodipodi:cx="343.3071"
       sodipodi:cy="182.30315"
       sodipodi:rx="3.1496062"
       sodipodi:ry="3.5433071"
       d="m 346.4567,182.30315 a 3.1496062,3.5433071 0 1 1 -6.29921,0 3.1496062,3.5433071 0 1 1 6.29921,0 z"
       transform="matrix(0.8,0,0,-0.8,-139.84235,202.12276)"
       inkscape:transform-center-x="-3.5477239"
       inkscape:transform-center-y="1.4513395" /><path
       sodipodi:type="arc"
       style="opacity:0.78318582999999986;fill:#009100;fill-opacity:1;stroke:none"
       id="path4137-1-9-8-9-37-3"
       sodipodi:cx="343.3071"
       sodipodi:cy="182.30315"
       sodipodi:rx="3.1496062"
       sodipodi:ry="3.5433071"
       d="m 346.4567,182.30315 a 3.1496062,3.5433071 0 1 1 -6.29921,0 3.1496062,3.5433071 0 1 1 6.29921,0 z"
       transform="matrix(0.8,0,0,-0.8,-153.0707,202.12276)"
       inkscape:transform-center-x="-3.5477239"
       inkscape:transform-center-y="1.4513395" /><path
       sodipodi:type="arc"
       style="opacity:0.78318582999999986;fill:#009100;fill-opacity:1;stroke:none"
       id="path4137-1-9-8-9-37-97"
       sodipodi:cx="343.3071"
       sodipodi:cy="182.30315"
       sodipodi:rx="3.1496062"
       sodipodi:ry="3.5433071"
       d="m 346.4567,182.30315 a 3.1496062,3.5433071 0 1 1 -6.29921,0 3.1496062,3.5433071 0 1 1 6.29921,0 z"
       transform="matrix(0.8,0,0,-0.8,-83.779385,202.12276)"
       inkscape:transform-center-x="-3.5477239"
       inkscape:transform-center-y="1.4513395" /><path
       sodipodi:type="arc"
       style="opacity:0.78318582999999986;fill:#ff0000;fill-opacity:1;stroke:none;stroke-width:0.10000000000000001;stroke-miterlimit:4;stroke-dasharray:none"
       id="path4137-1-9-8-9-37-31"
       sodipodi:cx="343.3071"
       sodipodi:cy="182.30315"
       sodipodi:rx="3.1496062"
       sodipodi:ry="3.5433071"
       d="m 346.4567,182.30315 a 3.1496062,3.5433071 0 1 1 -6.29921,0 3.1496062,3.5433071 0 1 1 6.29921,0 z"
       transform="matrix(0.8,0,0,-0.8,-16.377815,202.12276)"
       inkscape:transform-center-x="-3.5477239"
       inkscape:transform-center-y="1.4513395" /><path
       sodipodi:type="arc"
       style="opacity:0.78318582999999986;fill:#ff0000;fill-opacity:1;stroke:none;stroke-width:0.10000000000000001;stroke-miterlimit:4;stroke-dasharray:none"
       id="path4137-1-9-8-9-37-17"
       sodipodi:cx="343.3071"
       sodipodi:cy="182.30315"
       sodipodi:rx="3.1496062"
       sodipodi:ry="3.5433071"
       d="m 346.4567,182.30315 a 3.1496062,3.5433071 0 1 1 -6.29921,0 3.1496062,3.5433071 0 1 1 6.29921,0 z"
       transform="matrix(0.8,0,0,-0.8,30.236363,202.12276)"
       inkscape:transform-center-x="-3.5477239"
       inkscape:transform-center-y="1.4513395" /><path
       sodipodi:type="arc"
       style="opacity:0.78318582999999986;fill:#ff0000;fill-opacity:1;stroke:none;stroke-width:0.10000000000000001;stroke-miterlimit:4;stroke-dasharray:none"
       id="path4137-1-9-8-9-37-92"
       sodipodi:cx="343.3071"
       sodipodi:cy="182.30315"
       sodipodi:rx="3.1496062"
       sodipodi:ry="3.5433071"
       d="m 346.4567,182.30315 a 3.1496062,3.5433071 0 1 1 -6.29921,0 3.1496062,3.5433071 0 1 1 6.29921,0 z"
       transform="matrix(0.8,0,0,-0.8,-31.49592,202.12276)"
       inkscape:transform-center-x="-3.5477239"
       inkscape:transform-center-y="1.4513395" /><text
       xml:space="preserve"
       style="font-size:20px;font-style:normal;font-weight:normal;line-height:125%;letter-spacing:0px;word-spacing:0px;fill:#000000;fill-opacity:1;stroke:none;font-family:Sans"
       x="350.01624"
       y="345.63449"
       id="text4408"
       sodipodi:linespacing="125%"
       transform="matrix(0.8,0,0,-0.8,0,446)"><tspan
         sodipodi:role="line"
         id="tspan4410"
         x="350.01624"
         y="345.63449"><tspan
   style="font-style:italic"
   id="tspan4416">p≈ </tspan>—</tspan></text>
<text
       xml:space="preserve"
       style="font-size:16px;font-style:normal;font-weight:normal;line-height:125%;letter-spacing:0px;word-spacing:0px;fill:#ff0000;fill-opacity:1;stroke:none;font-family:Sans"
       x="304.75641"
       y="-176.50304"
       id="text4412"
       sodipodi:linespacing="125%"
       transform="scale(1,-1)"><tspan
         sodipodi:role="line"
         id="tspan4414"
         x="304.75641"
         y="-176.50304">9</tspan></text>
<text
       xml:space="preserve"
       style="font-size:16px;font-style:normal;font-weight:normal;line-height:125%;letter-spacing:0px;word-spacing:0px;fill:#000000;fill-opacity:1;stroke:none;font-family:Sans"
       x="301.04489"
       y="-159.18265"
       id="text4418"
       sodipodi:linespacing="125%"
       transform="scale(1,-1)"><tspan
         sodipodi:role="line"
         id="tspan4420"
         x="301.04489"
         y="-159.18265">30</tspan></text>
</g></svg>